<svg width="500" height="115" viewBox="0 0 500 115" fill="none" xmlns="http://www.w3.org/2000/svg">
<path fill-rule="evenodd" clip-rule="evenodd" d="M32.2037 56.5024C32.2037 54.8617 33.5338 53.5317 35.1745 53.5317C36.8152 53.5317 38.1452 54.8617 38.1452 56.5024V61.1854C38.1452 62.8261 36.8151 64.1561 35.1745 64.1561C33.5338 64.1561 32.2037 62.8261 32.2037 61.1854V56.5024ZM35.1745 54.9442C34.3139 54.9442 33.6162 55.6418 33.6162 56.5024V61.1854C33.6162 62.046 34.3139 62.7436 35.1745 62.7436C36.035 62.7436 36.7327 62.046 36.7327 61.1854V56.5024C36.7327 55.6418 36.035 54.9442 35.1745 54.9442Z" fill="black"/>
<path fill-rule="evenodd" clip-rule="evenodd" d="M43.5478 56.5024C43.5478 54.8617 44.8778 53.5316 46.5185 53.5316C48.1592 53.5316 49.4892 54.8617 49.4892 56.5024V61.1854C49.4892 62.826 48.1592 64.1561 46.5185 64.1561C44.8778 64.1561 43.5478 62.826 43.5478 61.1853V56.5024ZM46.5185 54.9441C45.6579 54.9441 44.9603 55.6418 44.9603 56.5024V61.1853C44.9603 62.0459 45.6579 62.7436 46.5185 62.7436C47.3791 62.7436 48.0767 62.0459 48.0767 61.1854V56.5024C48.0767 55.6418 47.3791 54.9441 46.5185 54.9441Z" fill="black"/>
<path fill-rule="evenodd" clip-rule="evenodd" d="M56.975 69.813H24.8897V68.4005H56.975V69.813Z" fill="black"/>
<path fill-rule="evenodd" clip-rule="evenodd" d="M37.4389 58.6337H44.2539V60.0462H37.4389V58.6337ZM53.8104 60.0462H48.7829V58.6337H53.8104C55.7607 58.6337 57.3417 60.2147 57.3417 62.1649L57.3417 72.1982C56.8706 72.3487 56.3998 72.5045 55.9292 72.6649L55.9292 62.1649C55.9292 60.9948 54.9806 60.0462 53.8104 60.0462ZM25.5959 83.2012L25.5959 62.1649C25.5959 60.9948 26.5445 60.0462 27.7146 60.0462H32.91V58.6337H27.7146C25.7643 58.6337 24.1833 60.2147 24.1833 62.1649V88.2607C24.1833 90.211 25.7644 91.792 27.7146 91.792C25.7644 91.792 24.1834 90.211 24.1833 88.2607L24.1834 83.4288C24.6557 83.3602 25.1265 83.2842 25.5959 83.2012Z" fill="black"/>
<path fill-rule="evenodd" clip-rule="evenodd" d="M19.2652 6.65001C19.2652 3.52959 21.7948 1 24.9152 1H55.9902C59.1107 1 61.6403 3.52959 61.6403 6.65001C61.6403 9.75392 59.1373 12.2732 56.0397 12.2998V35.9866C70.738 42.0725 81.0819 56.5561 81.0819 73.4591C81.0819 95.8492 62.9311 114 40.5409 114C18.1508 114 0 95.8492 0 73.4591C0 56.5561 10.3439 42.0725 25.0422 35.9866V12.3H24.9152C21.7948 12.3 19.2652 9.77042 19.2652 6.65001ZM53.2147 12.3H27.8672V37.9116L26.9634 38.2605C12.84 43.7123 2.825 57.4179 2.825 73.4591C2.825 75.9328 3.06315 78.3508 3.51776 80.6916C17.5233 86.8512 29.7321 82.9366 41.5379 78.2763C42.6546 77.8355 43.7676 77.3883 44.8772 76.9425L44.8779 76.9422L44.8794 76.9416L44.8801 76.9414C45.5346 76.6784 46.1861 76.4148 46.8352 76.1522L46.8395 76.1504L46.8405 76.15C57.1629 71.9736 66.8715 68.0456 78.1658 70.8169C77.1352 55.9254 67.4599 43.4104 54.1185 38.2605L53.2147 37.9116V12.3ZM58.8153 6.65001C58.8153 8.1937 57.5771 9.4482 56.0397 9.47459V9.44106H25.0422V9.47501H24.9152C23.355 9.47501 22.0902 8.21021 22.0902 6.65001C22.0902 5.0898 23.355 3.825 24.9152 3.825H55.9902C57.5505 3.825 58.8153 5.0898 58.8153 6.65001ZM54.0078 84.0834C54.2836 83.8075 54.2836 83.3604 54.0078 83.0846C53.732 82.8088 53.2848 82.8088 53.009 83.0846L49.4149 86.6786L47.8817 85.1454C47.6059 84.8696 47.1587 84.8696 46.8829 85.1454C46.6071 85.4212 46.6071 85.8684 46.8829 86.1442L48.9155 88.1768C49.1913 88.4526 49.6385 88.4526 49.9143 88.1768L54.0078 84.0834ZM57.3417 72.1982V88.2607C57.3417 90.211 55.7607 91.792 53.8105 91.792H27.7147C25.7644 91.792 24.1834 90.211 24.1834 88.2607V83.4287C24.6557 83.3601 25.1266 83.2841 25.5959 83.2012V88.2607C25.5959 89.4309 26.5445 90.3795 27.7147 90.3795H53.8105C54.9806 90.3795 55.9292 89.4309 55.9292 88.2607V72.6649C56.3999 72.5045 56.8706 72.3487 57.3417 72.1982Z" fill="black"/>
<path d="M158.333 26.3695C159.161 26.9215 159.644 27.646 159.782 28.543C159.92 29.371 159.713 30.199 159.161 31.027C158.678 31.648 158.057 31.993 157.298 32.062C156.539 32.131 155.814 31.993 155.124 31.648C152.502 29.923 149.673 28.5775 146.637 27.6115C143.67 26.6455 140.462 26.1625 137.012 26.1625C132.803 26.1625 128.87 26.9215 125.213 28.4395C121.625 29.8885 118.485 32.0275 115.794 34.8565C113.103 37.6165 110.999 40.894 109.481 44.689C108.032 48.484 107.307 52.6585 107.307 57.2125C107.307 61.9045 108.066 66.1825 109.584 70.0465C111.102 73.8415 113.207 77.119 115.898 79.879C118.658 82.639 121.832 84.7435 125.42 86.1925C129.008 87.6415 132.872 88.366 137.012 88.366C140.393 88.366 143.567 87.883 146.534 86.917C149.57 85.951 152.399 84.64 155.021 82.984C155.711 82.57 156.435 82.432 157.194 82.57C158.022 82.639 158.678 83.0185 159.161 83.7085C159.782 84.4675 159.989 85.2955 159.782 86.1925C159.644 87.0205 159.195 87.676 158.436 88.159C156.711 89.263 154.676 90.298 152.33 91.264C149.984 92.23 147.5 92.989 144.878 93.541C142.256 94.162 139.634 94.4725 137.012 94.4725C132.044 94.4725 127.386 93.5755 123.039 91.7815C118.692 89.9875 114.828 87.469 111.447 84.226C108.066 80.914 105.41 76.981 103.478 72.427C101.615 67.873 100.683 62.8015 100.683 57.2125C100.683 51.8305 101.615 46.897 103.478 42.412C105.341 37.858 107.928 33.925 111.24 30.613C114.552 27.301 118.416 24.7135 122.832 22.8505C127.248 20.9875 131.975 20.056 137.012 20.056C140.945 20.056 144.74 20.608 148.397 21.712C152.054 22.816 155.366 24.3685 158.333 26.3695Z" fill="black"/>
<path d="M214.463 40.549C215.36 40.549 216.085 40.8595 216.637 41.4805C217.258 42.1015 217.568 42.8605 217.568 43.7575V90.3325C217.568 91.1605 217.258 91.885 216.637 92.506C216.016 93.127 215.291 93.4375 214.463 93.4375C213.497 93.4375 212.738 93.127 212.186 92.506C211.634 91.885 211.358 91.1605 211.358 90.3325V78.016L213.118 77.188C213.118 79.12 212.566 81.0865 211.462 83.0875C210.427 85.0885 208.978 86.9515 207.115 88.6765C205.252 90.4015 203.044 91.816 200.491 92.92C198.007 93.955 195.281 94.4725 192.314 94.4725C187.691 94.4725 183.517 93.265 179.791 90.85C176.134 88.435 173.236 85.123 171.097 80.914C169.027 76.705 167.992 71.9785 167.992 66.7345C167.992 61.3525 169.061 56.626 171.2 52.555C173.339 48.415 176.237 45.172 179.894 42.826C183.551 40.48 187.657 39.307 192.211 39.307C195.178 39.307 197.938 39.8245 200.491 40.8595C203.113 41.8945 205.39 43.309 207.322 45.103C209.254 46.897 210.772 48.967 211.876 51.313C212.98 53.59 213.532 55.9705 213.532 58.4545L211.358 56.902V43.7575C211.358 42.8605 211.634 42.1015 212.186 41.4805C212.738 40.8595 213.497 40.549 214.463 40.549ZM192.935 88.6765C196.592 88.6765 199.835 87.745 202.664 85.882C205.493 83.95 207.701 81.328 209.288 78.016C210.944 74.635 211.772 70.8745 211.772 66.7345C211.772 62.6635 210.944 59.0065 209.288 55.7635C207.701 52.5205 205.493 49.933 202.664 48.001C199.835 46.069 196.592 45.103 192.935 45.103C189.347 45.103 186.104 46.0345 183.206 47.8975C180.377 49.7605 178.135 52.3135 176.479 55.5565C174.892 58.7995 174.098 62.5255 174.098 66.7345C174.098 70.8745 174.892 74.635 176.479 78.016C178.066 81.328 180.274 83.95 183.103 85.882C186.001 87.745 189.278 88.6765 192.935 88.6765Z" fill="black"/>
<path d="M240.603 90.3325C240.603 91.1605 240.293 91.885 239.672 92.506C239.051 93.127 238.326 93.4375 237.498 93.4375C236.601 93.4375 235.842 93.127 235.221 92.506C234.669 91.885 234.393 91.1605 234.393 90.3325V19.9525C234.393 19.1245 234.704 18.4 235.325 17.779C235.946 17.158 236.67 16.8475 237.498 16.8475C238.395 16.8475 239.12 17.158 239.672 17.779C240.293 18.4 240.603 19.1245 240.603 19.9525V90.3325Z" fill="black"/>
<path d="M282.776 39.307C287.468 39.307 291.608 40.48 295.196 42.826C298.853 45.172 301.751 48.415 303.89 52.555C306.029 56.626 307.099 61.3525 307.099 66.7345C307.099 71.9785 306.029 76.705 303.89 80.914C301.751 85.123 298.853 88.435 295.196 90.85C291.539 93.265 287.434 94.4725 282.88 94.4725C280.465 94.4725 278.153 94.093 275.945 93.334C273.806 92.575 271.84 91.5745 270.046 90.3325C268.252 89.0215 266.665 87.5035 265.285 85.7785C263.905 84.0535 262.801 82.1905 261.973 80.1895L263.836 78.844V90.5395C263.836 91.4365 263.525 92.1955 262.904 92.8165C262.352 93.3685 261.628 93.6445 260.731 93.6445C259.834 93.6445 259.075 93.3685 258.454 92.8165C257.902 92.1955 257.626 91.4365 257.626 90.5395V20.056C257.626 19.159 257.902 18.4345 258.454 17.8825C259.006 17.2615 259.765 16.951 260.731 16.951C261.628 16.951 262.352 17.2615 262.904 17.8825C263.525 18.4345 263.836 19.159 263.836 20.056V54.7285L262.387 53.9005C263.077 51.7615 264.077 49.8295 265.388 48.1045C266.768 46.3105 268.355 44.758 270.149 43.447C271.943 42.136 273.91 41.1355 276.049 40.4455C278.188 39.6865 280.43 39.307 282.776 39.307ZM282.259 45.103C278.533 45.103 275.255 46.0345 272.426 47.8975C269.597 49.7605 267.355 52.3135 265.699 55.5565C264.112 58.7995 263.318 62.5255 263.318 66.7345C263.318 70.8745 264.112 74.635 265.699 78.016C267.355 81.328 269.597 83.95 272.426 85.882C275.255 87.745 278.533 88.6765 282.259 88.6765C285.916 88.6765 289.124 87.7105 291.884 85.7785C294.713 83.8465 296.956 81.2245 298.612 77.9125C300.268 74.5315 301.096 70.8055 301.096 66.7345C301.096 62.5255 300.268 58.7995 298.612 55.5565C296.956 52.3135 294.713 49.7605 291.884 47.8975C289.124 46.0345 285.916 45.103 282.259 45.103Z" fill="black"/>
<path d="M325.891 90.3325C325.891 91.1605 325.58 91.885 324.959 92.506C324.338 93.127 323.614 93.4375 322.786 93.4375C321.889 93.4375 321.13 93.127 320.509 92.506C319.957 91.885 319.681 91.1605 319.681 90.3325V42.7225C319.681 41.8945 319.957 41.17 320.509 40.549C321.13 39.928 321.889 39.6175 322.786 39.6175C323.683 39.6175 324.407 39.928 324.959 40.549C325.58 41.17 325.891 41.8945 325.891 42.7225V90.3325ZM322.786 32.683C321.337 32.683 320.233 32.3725 319.474 31.7515C318.784 31.0615 318.439 30.0955 318.439 28.8535V27.8185C318.439 26.5765 318.818 25.645 319.577 25.024C320.405 24.334 321.509 23.989 322.889 23.989C324.2 23.989 325.201 24.334 325.891 25.024C326.65 25.645 327.029 26.5765 327.029 27.8185V28.8535C327.029 30.0955 326.65 31.0615 325.891 31.7515C325.201 32.3725 324.166 32.683 322.786 32.683Z" fill="black"/>
<path d="M338.607 40.756H362.723C363.551 40.756 364.241 41.0665 364.793 41.6875C365.345 42.2395 365.621 42.9295 365.621 43.7575C365.621 44.5165 365.345 45.172 364.793 45.724C364.241 46.276 363.551 46.552 362.723 46.552H338.607C337.779 46.552 337.055 46.276 336.434 45.724C335.882 45.103 335.606 44.413 335.606 43.654C335.606 42.826 335.882 42.136 336.434 41.584C337.055 41.032 337.779 40.756 338.607 40.756ZM349.268 26.1625C350.165 26.1625 350.889 26.473 351.441 27.094C352.062 27.715 352.373 28.4395 352.373 29.2675V81.2245C352.373 83.1565 352.614 84.6055 353.097 85.5715C353.649 86.5375 354.339 87.193 355.167 87.538C355.995 87.814 356.823 87.952 357.651 87.952C358.203 87.952 358.686 87.883 359.1 87.745C359.583 87.538 360.101 87.4345 360.653 87.4345C361.274 87.4345 361.791 87.676 362.205 88.159C362.688 88.642 362.93 89.263 362.93 90.022C362.93 90.988 362.378 91.816 361.274 92.506C360.17 93.127 358.859 93.4375 357.341 93.4375C356.72 93.4375 355.788 93.403 354.546 93.334C353.304 93.196 352.028 92.8165 350.717 92.1955C349.406 91.5055 348.302 90.3325 347.405 88.6765C346.577 87.0205 346.163 84.64 346.163 81.535V29.2675C346.163 28.4395 346.439 27.715 346.991 27.094C347.612 26.473 348.371 26.1625 349.268 26.1625Z" fill="black"/>
<path d="M383.099 90.3325C383.099 91.1605 382.788 91.885 382.167 92.506C381.546 93.127 380.822 93.4375 379.994 93.4375C379.097 93.4375 378.338 93.127 377.717 92.506C377.165 91.885 376.889 91.1605 376.889 90.3325V42.7225C376.889 41.8945 377.165 41.17 377.717 40.549C378.338 39.928 379.097 39.6175 379.994 39.6175C380.891 39.6175 381.615 39.928 382.167 40.549C382.788 41.17 383.099 41.8945 383.099 42.7225V90.3325ZM379.994 32.683C378.545 32.683 377.441 32.3725 376.682 31.7515C375.992 31.0615 375.647 30.0955 375.647 28.8535V27.8185C375.647 26.5765 376.026 25.645 376.785 25.024C377.613 24.334 378.717 23.989 380.097 23.989C381.408 23.989 382.409 24.334 383.099 25.024C383.858 25.645 384.237 26.5765 384.237 27.8185V28.8535C384.237 30.0955 383.858 31.0615 383.099 31.7515C382.409 32.3725 381.374 32.683 379.994 32.683Z" fill="black"/>
<path d="M422.104 39.307C425.416 39.307 428.452 39.6865 431.212 40.4455C433.972 41.1355 436.18 42.1015 437.836 43.3435C439.561 44.5855 440.424 45.931 440.424 47.38C440.424 48.07 440.148 48.76 439.596 49.45C439.113 50.071 438.492 50.3815 437.733 50.3815C436.836 50.3815 436.111 50.1745 435.559 49.7605C435.076 49.3465 434.593 48.8635 434.11 48.3115C433.627 47.7595 432.903 47.242 431.937 46.759C431.04 46.345 429.729 45.9655 428.004 45.6205C426.348 45.2755 424.485 45.103 422.415 45.103C418.551 45.103 415.066 46.069 411.961 48.001C408.856 49.933 406.407 52.555 404.613 55.867C402.819 59.11 401.922 62.767 401.922 66.838C401.922 70.978 402.75 74.704 404.406 78.016C406.131 81.328 408.511 83.95 411.547 85.882C414.652 87.745 418.206 88.6765 422.208 88.6765C424.968 88.6765 427.107 88.435 428.625 87.952C430.212 87.469 431.523 86.917 432.558 86.296C433.938 85.537 434.904 84.8125 435.456 84.1225C436.077 83.3635 436.87 82.984 437.836 82.984C438.664 82.984 439.32 83.26 439.803 83.812C440.286 84.295 440.527 84.9505 440.527 85.7785C440.527 86.8825 439.699 88.1245 438.043 89.5045C436.456 90.8155 434.248 91.9885 431.419 93.0235C428.59 93.9895 425.313 94.4725 421.587 94.4725C416.481 94.4725 411.961 93.265 408.028 90.85C404.164 88.435 401.128 85.1575 398.92 81.0175C396.781 76.8085 395.712 72.082 395.712 66.838C395.712 61.801 396.816 57.2125 399.024 53.0725C401.232 48.9325 404.302 45.6205 408.235 43.1365C412.168 40.5835 416.791 39.307 422.104 39.307Z" fill="black"/>
<path d="M495.348 40.549C496.245 40.549 496.97 40.8595 497.522 41.4805C498.143 42.1015 498.453 42.8605 498.453 43.7575V90.3325C498.453 91.1605 498.143 91.885 497.522 92.506C496.901 93.127 496.176 93.4375 495.348 93.4375C494.382 93.4375 493.623 93.127 493.071 92.506C492.519 91.885 492.243 91.1605 492.243 90.3325V78.016L494.003 77.188C494.003 79.12 493.451 81.0865 492.347 83.0875C491.312 85.0885 489.863 86.9515 488 88.6765C486.137 90.4015 483.929 91.816 481.376 92.92C478.892 93.955 476.166 94.4725 473.199 94.4725C468.576 94.4725 464.402 93.265 460.676 90.85C457.019 88.435 454.121 85.123 451.982 80.914C449.912 76.705 448.877 71.9785 448.877 66.7345C448.877 61.3525 449.946 56.626 452.085 52.555C454.224 48.415 457.122 45.172 460.779 42.826C464.436 40.48 468.542 39.307 473.096 39.307C476.063 39.307 478.823 39.8245 481.376 40.8595C483.998 41.8945 486.275 43.309 488.207 45.103C490.139 46.897 491.657 48.967 492.761 51.313C493.865 53.59 494.417 55.9705 494.417 58.4545L492.243 56.902V43.7575C492.243 42.8605 492.519 42.1015 493.071 41.4805C493.623 40.8595 494.382 40.549 495.348 40.549ZM473.82 88.6765C477.477 88.6765 480.72 87.745 483.549 85.882C486.378 83.95 488.586 81.328 490.173 78.016C491.829 74.635 492.657 70.8745 492.657 66.7345C492.657 62.6635 491.829 59.0065 490.173 55.7635C488.586 52.5205 486.378 49.933 483.549 48.001C480.72 46.069 477.477 45.103 473.82 45.103C470.232 45.103 466.989 46.0345 464.091 47.8975C461.262 49.7605 459.02 52.3135 457.364 55.5565C455.777 58.7995 454.983 62.5255 454.983 66.7345C454.983 70.8745 455.777 74.635 457.364 78.016C458.951 81.328 461.159 83.95 463.988 85.882C466.886 87.745 470.163 88.6765 473.82 88.6765Z" fill="black"/>
</svg>
