<svg width="500" height="500" viewBox="0 0 500 500" fill="none" xmlns="http://www.w3.org/2000/svg">
<path fill-rule="evenodd" clip-rule="evenodd" d="M213.189 245.643C213.189 238.399 219.061 232.527 226.305 232.527C233.55 232.527 239.422 238.399 239.422 245.643V266.32C239.422 273.564 233.55 279.437 226.305 279.437C219.061 279.437 213.189 273.564 213.189 266.32V245.643ZM226.305 238.763C222.506 238.763 219.425 241.844 219.425 245.643V266.32C219.425 270.12 222.506 273.2 226.305 273.2C230.105 273.2 233.185 270.12 233.185 266.32V245.643C233.185 241.844 230.105 238.763 226.305 238.763Z" fill="white"/>
<path fill-rule="evenodd" clip-rule="evenodd" d="M263.276 245.643C263.276 238.399 269.149 232.527 276.393 232.527C283.637 232.527 289.509 238.399 289.509 245.643V266.32C289.509 273.564 283.637 279.437 276.393 279.437C269.149 279.437 263.276 273.564 263.276 266.32V245.643ZM276.393 238.763C272.593 238.763 269.513 241.844 269.513 245.643V266.32C269.513 270.12 272.593 273.2 276.393 273.2C280.192 273.2 283.273 270.12 283.273 266.32V245.643C283.273 241.844 280.192 238.763 276.393 238.763Z" fill="white"/>
<path fill-rule="evenodd" clip-rule="evenodd" d="M322.561 304.414H180.895V298.177H322.561V304.414Z" fill="white"/>
<path fill-rule="evenodd" clip-rule="evenodd" d="M236.304 255.054H266.394V261.29H236.304V255.054ZM308.588 261.29H286.39V255.054H308.588C317.199 255.054 324.18 262.034 324.18 270.645L324.18 314.945C322.1 315.609 320.021 316.297 317.943 317.006L317.943 270.645C317.943 265.479 313.755 261.29 308.588 261.29ZM184.013 363.526L184.013 270.645C184.013 265.479 188.201 261.29 193.368 261.29H216.307V255.054H193.368C184.757 255.054 177.776 262.034 177.776 270.645V385.866C177.776 394.476 184.757 401.457 193.368 401.457C184.757 401.457 177.776 394.476 177.776 385.866L177.776 364.531C179.862 364.228 181.941 363.892 184.013 363.526Z" fill="white"/>
<path fill-rule="evenodd" clip-rule="evenodd" d="M156.062 25.5304C156.062 11.7529 167.231 0.584026 181.008 0.584026H318.213C331.991 0.584026 343.16 11.7529 343.16 25.5304C343.16 39.2352 332.109 50.3588 318.431 50.4759V155.06C383.329 181.931 429 245.881 429 320.512C429 419.371 348.859 499.512 250 499.512C151.141 499.512 71 419.371 71 320.512C71 245.881 116.671 181.931 181.569 155.06V50.4769H181.008C167.231 50.4769 156.062 39.308 156.062 25.5304ZM305.958 50.4769H194.042V163.56L190.051 165.1C127.692 189.171 83.4732 249.685 83.4732 320.512C83.4732 331.434 84.5247 342.11 86.5319 352.446C148.37 379.642 202.276 362.358 254.402 341.781C259.329 339.836 264.24 337.863 269.137 335.896L269.149 335.891L269.155 335.888L269.158 335.887C272.055 334.723 274.938 333.557 277.81 332.395L277.814 332.393C323.391 313.953 366.257 296.61 416.125 308.846C411.574 243.096 368.855 187.838 309.949 165.1L305.958 163.56V50.4769ZM330.687 25.5304C330.687 32.3464 325.22 37.8854 318.431 38.0018V37.8538H181.569V38.0037H181.008C174.119 38.0037 168.535 32.4192 168.535 25.5304C168.535 18.6417 174.119 13.0572 181.008 13.0572H318.213C325.102 13.0572 330.687 18.6417 330.687 25.5304ZM309.46 367.421C310.678 366.203 310.678 364.229 309.46 363.011C308.242 361.793 306.268 361.793 305.05 363.011L289.181 378.88L282.412 372.111C281.194 370.893 279.219 370.893 278.002 372.111C276.784 373.328 276.784 375.303 278.002 376.52L286.976 385.495C288.194 386.713 290.168 386.713 291.386 385.495L309.46 367.421ZM324.18 314.945V385.865C324.18 394.476 317.2 401.457 308.589 401.457H193.368C184.757 401.457 177.777 394.476 177.777 385.865V364.531C179.862 364.228 181.941 363.892 184.013 363.526V385.865C184.013 391.032 188.202 395.22 193.368 395.22H308.589C313.755 395.22 317.944 391.032 317.944 385.865V317.005C320.022 316.297 322.1 315.609 324.18 314.945Z" fill="white"/>
</svg>
